<?xml version="1.0" encoding="UTF-8" standalone="no"?>
<svg
   xmlns:dc="http://purl.org/dc/elements/1.1/"
   xmlns:cc="http://creativecommons.org/ns#"
   xmlns:rdf="http://www.w3.org/1999/02/22-rdf-syntax-ns#"
   xmlns:svg="http://www.w3.org/2000/svg"
   xmlns="http://www.w3.org/2000/svg"
   xmlns:sodipodi="http://sodipodi.sourceforge.net/DTD/sodipodi-0.dtd"
   xmlns:inkscape="http://www.inkscape.org/namespaces/inkscape"
   version="1.1"
   id="svg2"
   xml:space="preserve"
   width="1000"
   height="666.66669"
   viewBox="0 0 1000 666.66669"
   sodipodi:docname="3775392.eps"><metadata
     id="metadata8"><rdf:RDF><cc:Work
         rdf:about=""><dc:format>image/svg+xml</dc:format><dc:type
           rdf:resource="http://purl.org/dc/dcmitype/StillImage" /></cc:Work></rdf:RDF></metadata><defs
     id="defs6" /><sodipodi:namedview
     pagecolor="#ffffff"
     bordercolor="#666666"
     borderopacity="1"
     objecttolerance="10"
     gridtolerance="10"
     guidetolerance="10"
     inkscape:pageopacity="0"
     inkscape:pageshadow="2"
     inkscape:window-width="640"
     inkscape:window-height="480"
     id="namedview4" /><g
     id="g10"
     inkscape:groupmode="layer"
     inkscape:label="ink_ext_XXXXXX"
     transform="matrix(1.3333333,0,0,-1.3333333,0,666.66667)"><g
       id="g12"
       transform="scale(0.1)"><path
         d="M 0,5000 H 7500 V 0 H 0 v 5000"
         style="fill:#ffffff;fill-opacity:1;fill-rule:evenodd;stroke:none"
         id="path14" /><path
         d="m 6421.3,1748 c -198.36,0 -360.63,-162.31 -360.63,-360.62 v 0 0 c 0,-361.88 -296.09,-658.001 -657.96,-658.001 h -36.33 v 0 H 2179.05 1411.01 c -470.115,0 -854.744,384.641 -854.744,854.761 v 0 c 0,470.11 384.64,854.73 854.744,854.73 h 22.48 c 94.35,0 171.53,77.23 171.53,171.56 v 0 c 0,94.34 -77.18,171.53 -171.53,171.53 h -94.36 c -229.34,0 -416.989,187.64 -416.989,416.98 v 0 c 0,229.09 187.209,416.57 416.189,417 0.26,0 406.63,0 406.88,0 198.33,0 360.63,162.28 360.63,360.61 v 0 0.02 c 0,361.87 296.07,657.96 657.96,657.96 642.14,0 2683.05,0 3325.17,0 470.12,0 854.77,-384.65 854.77,-854.74 v 0 c 0,-470.09 -384.65,-854.75 -854.77,-854.75 v 0 c -94.33,0 -171.52,-77.24 -171.52,-171.54 v 0 c 0,-94.33 77.19,-171.56 171.52,-171.56 h 332.33 c 545.6,0 545.62,-833.94 0,-833.94"
         style="fill:#c4ebe3;fill-opacity:1;fill-rule:evenodd;stroke:none"
         id="path16" /><path
         d="m 5750.67,1223.06 63.09,-78.96 h 286.78 l 63.08,78.96 c 226.6,611.27 -639.55,611.27 -412.95,0"
         style="fill:#328f84;fill-opacity:1;fill-rule:evenodd;stroke:none"
         id="path18" /><path
         d="m 5832.37,1216.94 38.13,-72.84 h 173.3 l 38.1,72.84 c 136.96,563.9 -386.46,563.9 -249.53,0"
         style="fill:#3cb29d;fill-opacity:1;fill-rule:evenodd;stroke:none"
         id="path20" /><path
         d="m 6203.06,1273.86 h -491.82 c -17.05,0 -30.96,-13.88 -30.96,-30.95 v -140.49 c 0,-17.04 13.91,-30.96 30.96,-30.96 h 491.82 c 17.05,0 30.95,13.92 30.95,30.96 v 140.49 c 0,17.07 -13.9,30.95 -30.95,30.95"
         style="fill:#fab312;fill-opacity:1;fill-rule:evenodd;stroke:none"
         id="path22" /><path
         d="m 6121.2,1159.56 h -328.1 l -85.67,-88.1 69.98,-307.198 h 179.75 179.72 l 69.99,307.198 -85.67,88.1"
         style="fill:#fab312;fill-opacity:1;fill-rule:evenodd;stroke:none"
         id="path24" /><path
         d="m 5707.43,1071.46 9.1,-40.02 466.04,-66.608 24.3,106.628 h -499.44"
         style="fill:#eb9c11;fill-opacity:1;fill-rule:evenodd;stroke:none"
         id="path26" /><path
         d="m 6114.52,1592.57 -17.85,-40.7 58.59,-111.56 43.64,-8.4 c 284.12,36.74 107.13,373.71 -84.38,160.66"
         style="fill:#328f84;fill-opacity:1;fill-rule:evenodd;stroke:none"
         id="path28" /><path
         d="m 6209.5,1484.78 c 189.55,67.46 110.37,185.35 -68.28,104.59 -151.09,-68.27 -89.22,-160.62 68.28,-104.59"
         style="fill:#3cb29d;fill-opacity:1;fill-rule:evenodd;stroke:none"
         id="path30" /><path
         d="m 5822.33,1601.62 5.71,-33 -63.13,-71.09 -33.47,1.74 c -201.37,78.38 -10.73,293.05 90.89,102.35"
         style="fill:#328f84;fill-opacity:1;fill-rule:evenodd;stroke:none"
         id="path32" /><path
         d="m 5736.81,1508.63 c -139.4,102.07 -42.37,203.15 84.47,90.08 107.26,-95.64 31.39,-174.88 -84.47,-90.08"
         style="fill:#3cb29d;fill-opacity:1;fill-rule:evenodd;stroke:none"
         id="path34" /><path
         d="m 1542.98,1164.24 c -14.03,14.04 -32.87,21.83 -52.72,21.83 -19.86,0 -38.7,-7.79 -52.74,-21.83 -14.03,-14.03 -21.84,-32.87 -21.84,-52.75 0,-19.84 7.81,-38.68 21.84,-52.72 14.04,-14.03 32.88,-21.82 52.74,-21.82 19.85,0 38.69,7.79 52.72,21.82 14.04,14.04 21.84,32.88 21.84,52.72 0,19.88 -7.8,38.72 -21.84,52.75 z m -52.72,69.56 c 32.53,0 63.47,-12.81 86.48,-35.83 23,-22.97 35.83,-53.93 35.83,-86.48 0,-32.54 -12.83,-63.47 -35.83,-86.48 -23.01,-22.98 -53.95,-35.83 -86.48,-35.83 -32.54,0 -63.48,12.85 -86.48,35.83 -23.01,23.01 -35.84,53.94 -35.84,86.48 0,32.55 12.83,63.51 35.84,86.48 23,23.02 53.94,35.83 86.48,35.83 v 0"
         style="fill:#fab312;fill-opacity:1;fill-rule:evenodd;stroke:none"
         id="path36" /><path
         d="m 1295.5,763.859 h 0.02 c 105.51,0 191.83,86.27 191.83,191.84 v 10.68 278.681 14.31 c 0,9.35 -7.65,16.99 -16.98,16.99 h -349.72 c -9.34,0 -16.98,-7.64 -16.98,-16.99 v -14.31 -278.681 -10.68 c 0,-105.57 86.33,-191.84 191.83,-191.84"
         style="fill:#fab312;fill-opacity:1;fill-rule:evenodd;stroke:none"
         id="path38" /><path
         d="m 1421.67,979.68 c 0,-20.508 -3.25,-40.258 -9.27,-58.809 -3.4,-10.461 -7.67,-20.57 -12.76,-30.191 -20.84,-39.481 -55.04,-70.93 -96.48,-88.211 -22.62,-9.41 -47.39,-14.637 -73.33,-14.637 -10.7,0 -21.2,0.906 -31.45,2.578 28.54,-16.859 61.75,-26.551 97.14,-26.551 43.09,0 82.98,14.411 115.11,38.61 20.91,15.801 38.52,35.73 51.58,58.59 5.3,9.261 9.85,18.992 13.56,29.132 7.49,20.457 11.58,42.528 11.58,65.508 v 10.68 214.641 30.53 33.51 14.31 c 0,9.35 -7.65,16.99 -16.98,16.99 h -48.7 v -7.31 -72.96 -36.87 -168.841 -10.699"
         style="fill:#da9215;fill-opacity:1;fill-rule:evenodd;stroke:none"
         id="path40" /><path
         d="m 1129.26,763.859 h 332.51 c 14.08,0 25.57,11.493 25.57,25.582 v 0 c 0,14.059 -11.49,25.559 -25.57,25.559 h -332.51 c -14.08,0 -25.59,-11.5 -25.59,-25.559 v 0 c 0,-14.089 11.51,-25.582 25.59,-25.582"
         style="fill:#da9215;fill-opacity:1;fill-rule:evenodd;stroke:none"
         id="path42" /><path
         d="m 1165.11,1239.89 h 0.02 c 17.78,0 32.31,-14.55 32.31,-32.33 V 988.09 c 0,-17.781 -14.53,-32.328 -32.31,-32.328 h -0.02 c -17.76,0 -32.31,14.547 -32.31,32.328 v 219.47 c 0,17.78 14.54,32.33 32.31,32.33"
         style="fill:#ffffff;fill-opacity:1;fill-rule:evenodd;stroke:none"
         id="path44" /><path
         d="m 1167,1776.65 h 387.52 c 46.74,0 84.99,-38.27 84.99,-84.99 v 0 c 0,-46.76 -38.25,-84.99 -84.99,-84.99 H 1167 c -46.74,0 -84.99,38.23 -84.99,84.99 v 0 c 0,46.72 38.25,84.99 84.99,84.99"
         style="fill:#ffffff;fill-opacity:1;fill-rule:evenodd;stroke:none"
         id="path46" /><path
         d="m 1224.79,1530.2 h 231.15 c 31.17,0 56.65,-25.48 56.65,-56.65 v 0 c 0,-31.17 -25.48,-56.65 -56.65,-56.65 h -231.15 c -31.17,0 -56.66,25.48 -56.66,56.65 v 0 c 0,31.17 25.49,56.65 56.66,56.65"
         style="fill:#ffffff;fill-opacity:1;fill-rule:evenodd;stroke:none"
         id="path48" /><path
         d="m 1073.52,1530.2 v 0 c -30.23,0 -54.96,-24.72 -54.96,-54.95 v -3.41 c 0,-30.22 24.73,-54.94 54.96,-54.94 v 0 c 30.23,0 54.96,24.72 54.96,54.94 v 3.41 c 0,30.23 -24.73,54.95 -54.96,54.95"
         style="fill:#ffffff;fill-opacity:1;fill-rule:evenodd;stroke:none"
         id="path50" /><path
         d="m 6122.45,4006.64 c 146.76,0 265.74,-118.96 265.74,-265.71 0,-146.76 -118.98,-265.73 -265.74,-265.73 h -232.21 c -18.1,-69.25 -72.63,-86.87 -123.37,-86.87 -62,0 -276.18,0 -379.48,0 -103.32,0 -127.75,86.87 -127.75,86.87 h -227.46 c -60.57,0 -109.65,49.1 -109.65,109.64 0,57.75 44.63,105.07 101.29,109.33 -0.41,5.28 -0.61,10.61 -0.61,16 0,120.49 97.7,218.16 218.19,218.16 31.66,0 61.75,-6.75 88.9,-18.89 26.41,184 184.65,325.44 375.96,325.44 158.93,0 295.02,-97.61 351.7,-236.14 20.64,5.16 42.25,7.9 64.49,7.9"
         style="fill:#87d6c9;fill-opacity:1;fill-rule:evenodd;stroke:none"
         id="path52" /><path
         d="m 6128.12,4055.69 c 146.77,0 265.74,-118.97 265.74,-265.72 0,-146.76 -118.97,-265.72 -265.74,-265.72 h -416.2 -674.08 c -60.56,0 -109.67,49.09 -109.67,109.65 0,57.73 44.65,105.05 101.29,109.33 -0.39,5.28 -0.56,10.6 -0.56,15.98 0,120.48 97.65,218.16 218.16,218.16 31.66,0 61.76,-6.75 88.91,-18.88 26.4,184.01 184.65,325.43 375.95,325.43 158.91,0 295.02,-97.61 351.7,-236.12 20.65,5.14 42.25,7.89 64.5,7.89"
         style="fill:#ffffff;fill-opacity:1;fill-rule:evenodd;stroke:none"
         id="path54" /><path
         d="m 5873.72,3578.26 c 0,114.59 0,218.84 0,218.84 h 55.53 18.34 l -169.77,237.17 h -28.44 l -198.2,-237.17 h 18.34 55.53 c 0,-0.62 0,-1.26 0,-1.89 0,-258.96 7.5,-270.96 -185.78,-270.96 h 272.65 155.57 c 4,15.34 6.23,33.22 6.23,54.01"
         style="fill:#d8e4f5;fill-opacity:1;fill-rule:evenodd;stroke:none"
         id="path56" /><path
         d="m 5902.14,3578.26 c 0,114.59 0,218.84 0,218.84 h 55.55 18.32 l -198.19,237.17 -198.2,-237.17 h 18.32 55.53 c 0,-0.62 0,-1.26 0,-1.89 0,-258.96 7.52,-270.96 -185.8,-270.96 h -202.35 c 0,0 24.42,-86.89 127.74,-86.89 103.3,0 317.48,0 379.45,0 50.74,0 105.29,17.63 123.4,86.89 4,15.34 6.23,33.22 6.23,54.01"
         style="fill:#fab312;fill-opacity:1;fill-rule:evenodd;stroke:none"
         id="path58" /><path
         d="m 1342.9,2945.79 c 136.81,0 248.41,111.57 248.41,248.38 0,136.82 -111.6,248.41 -248.41,248.41 -136.81,0 -248.39,-111.59 -248.39,-248.41 0,-136.81 111.58,-248.38 248.39,-248.38"
         style="fill:#ffffff;fill-opacity:1;fill-rule:evenodd;stroke:none"
         id="path60" /><path
         d="m 1290.82,3142.41 c -6.55,-7 -17.53,-7.4 -24.55,-0.87 -7.02,6.54 -7.43,17.55 -0.88,24.57 9.92,10.64 21.99,19.11 35.32,24.92 13.33,5.78 27.65,8.76 42.19,8.76 14.54,0 28.86,-2.98 42.19,-8.76 13.33,-5.81 25.39,-14.28 35.33,-24.92 6.54,-7.02 6.13,-18.03 -0.88,-24.57 -7.02,-6.53 -18.01,-6.13 -24.55,0.87 -6.66,7.14 -14.73,12.88 -23.69,16.76 -8.96,3.9 -18.61,5.83 -28.4,5.83 -9.77,0 -19.44,-1.93 -28.4,-5.83 -8.96,-3.88 -17.03,-9.62 -23.68,-16.76 z m -52.34,48.9 c 13.36,14.31 29.55,25.78 47.53,33.6 17.97,7.79 37.3,11.72 56.89,11.72 19.59,0 38.92,-3.93 56.91,-11.72 17.96,-7.82 34.15,-19.29 47.51,-33.6 6.54,-6.98 17.54,-7.39 24.54,-0.87 7.03,6.55 7.43,17.55 0.88,24.57 -16.63,17.81 -36.81,32.04 -59.16,41.73 -22.34,9.72 -46.33,14.68 -70.68,14.68 -24.35,0 -48.35,-4.96 -70.68,-14.68 -22.35,-9.69 -42.53,-23.92 -59.16,-41.73 -6.56,-7.02 -6.15,-18.02 0.87,-24.57 7.01,-6.52 18.02,-6.11 24.55,0.87 z m -45.7,42.7 c -6.54,-6.99 -17.53,-7.4 -24.55,-0.87 -7.01,6.53 -7.41,17.55 -0.86,24.57 22.48,24.06 49.75,43.31 79.96,56.43 30.2,13.11 62.65,19.82 95.57,19.82 32.92,0 65.37,-6.71 95.57,-19.82 30.21,-13.12 57.48,-32.37 79.96,-56.43 6.55,-7.02 6.15,-18.04 -0.86,-24.57 -7.03,-6.53 -18.01,-6.12 -24.55,0.87 -19.23,20.57 -42.51,37.07 -68.34,48.28 -25.83,11.23 -53.62,16.86 -81.78,16.86 -28.17,0 -55.93,-5.63 -81.79,-16.86 -25.82,-11.21 -49.1,-27.71 -68.33,-48.28 z m 150.12,-101 c 10.45,0 20.4,-4.11 27.79,-11.51 7.4,-7.4 11.52,-17.33 11.52,-27.79 0,-10.46 -4.12,-20.41 -11.52,-27.79 l -0.05,-0.04 c -7.36,-7.37 -17.31,-11.49 -27.74,-11.49 -10.45,0 -20.41,4.13 -27.79,11.53 -7.4,7.4 -11.52,17.33 -11.52,27.79 0,10.44 4.12,20.39 11.52,27.79 7.38,7.4 17.34,11.51 27.79,11.51 v 0"
         style="fill:#fab312;fill-opacity:1;fill-rule:evenodd;stroke:none"
         id="path62" /><path
         d="m 6350.95,1914.81 c 136.81,0 248.38,111.56 248.38,248.39 0,136.83 -111.57,248.4 -248.38,248.4 -136.84,0 -248.42,-111.57 -248.42,-248.4 0,-136.83 111.58,-248.39 248.42,-248.39"
         style="fill:#ffffff;fill-opacity:1;fill-rule:evenodd;stroke:none"
         id="path64" /><path
         d="m 6315.05,2303.2 h 71.78 c 9.06,0 16.46,-7.4 16.46,-16.47 v -71.2 h 71.17 c 9.08,0 16.49,-7.4 16.49,-16.47 v -71.74 c 0,-9.07 -7.41,-16.48 -16.49,-16.48 h -71.17 v -71.17 c 0,-9.07 -7.4,-16.46 -16.46,-16.46 h -71.78 c -9.06,0 -16.47,7.39 -16.47,16.46 v 71.17 h -71.19 c -9.06,0 -16.46,7.41 -16.46,16.48 v 71.74 c 0,9.07 7.4,16.47 16.46,16.47 h 71.19 v 71.2 c 0,9.07 7.41,16.47 16.47,16.47"
         style="fill:#47c1ab;fill-opacity:1;fill-rule:evenodd;stroke:none"
         id="path66" /><path
         d="m 2788.92,3684.49 h 30.91 c 7.43,0 13.51,6.08 13.51,13.52 v 30.9 c 0,7.44 -6.08,13.51 -13.51,13.51 h -30.91 c -7.43,0 -13.5,-6.07 -13.5,-13.51 v -30.9 c 0,-7.44 6.07,-13.52 13.5,-13.52 z m -111.05,-116.83 h 30.9 c 7.44,0 13.52,6.08 13.52,13.52 v 30.9 c 0,7.44 -6.08,13.51 -13.52,13.51 h -30.9 c -7.43,0 -13.5,-6.07 -13.5,-13.51 v -30.9 c 0,-7.44 6.07,-13.52 13.5,-13.52 z m 214.35,0 h 30.9 c 7.44,0 13.51,6.08 13.51,13.52 v 30.9 c 0,7.44 -6.07,13.51 -13.51,13.51 h -30.9 c -7.44,0 -13.52,-6.07 -13.52,-13.51 v -30.9 c 0,-7.44 6.08,-13.52 13.52,-13.52 z m -428.66,0 h 30.89 c 7.45,0 13.52,6.08 13.52,13.52 v 30.9 c 0,7.44 -6.07,13.51 -13.52,13.51 h -30.89 c -7.45,0 -13.52,-6.07 -13.52,-13.51 v -30.9 c 0,-7.44 6.07,-13.52 13.52,-13.52 v 0"
         style="fill:#87d6c9;fill-opacity:1;fill-rule:evenodd;stroke:none"
         id="path68" /><path
         d="m 2570.72,3567.66 h 30.9 c 7.43,0 13.52,6.08 13.52,13.52 v 30.9 c 0,7.44 -6.09,13.51 -13.52,13.51 h -30.9 c -7.44,0 -13.51,-6.07 -13.51,-13.51 v -30.9 c 0,-7.44 6.07,-13.52 13.51,-13.52"
         style="fill:#ffffff;fill-opacity:1;fill-rule:evenodd;stroke:none"
         id="path70" /><path
         d="m 2785.04,3567.66 h 30.89 c 7.44,0 13.53,6.08 13.53,13.52 v 30.9 c 0,7.44 -6.09,13.51 -13.53,13.51 h -30.89 c -7.43,0 -13.52,-6.07 -13.52,-13.51 v -30.9 c 0,-7.44 6.09,-13.52 13.52,-13.52"
         style="fill:#ffffff;fill-opacity:1;fill-rule:evenodd;stroke:none"
         id="path72" /><path
         d="m 2681.75,3684.49 h 30.92 c 7.42,0 13.51,6.08 13.51,13.52 v 30.9 c 0,7.44 -6.09,13.51 -13.51,13.51 h -30.92 c -7.42,0 -13.5,-6.07 -13.5,-13.51 v -30.9 c 0,-7.44 6.08,-13.52 13.5,-13.52"
         style="fill:#ffffff;fill-opacity:1;fill-rule:evenodd;stroke:none"
         id="path74" /><path
         d="m 2896.08,3684.49 h 30.9 c 7.44,0 13.51,6.08 13.51,13.52 v 30.9 c 0,7.44 -6.07,13.51 -13.51,13.51 h -30.9 c -7.44,0 -13.51,-6.07 -13.51,-13.51 v -30.9 c 0,-7.44 6.07,-13.52 13.51,-13.52"
         style="fill:#ffffff;fill-opacity:1;fill-rule:evenodd;stroke:none"
         id="path76" /><path
         d="m 4661.14,4116.97 h 30.9 c 7.44,0 13.52,6.07 13.52,13.52 v 30.89 c 0,7.45 -6.08,13.52 -13.52,13.52 h -30.9 c -7.42,0 -13.51,-6.07 -13.51,-13.52 v -30.89 c 0,-7.45 6.09,-13.52 13.51,-13.52 z m -111.03,-116.83 h 30.88 c 7.46,0 13.51,6.07 13.51,13.52 v 30.89 c 0,7.45 -6.05,13.52 -13.51,13.52 h -30.88 c -7.44,0 -13.52,-6.07 -13.52,-13.52 v -30.89 c 0,-7.45 6.08,-13.52 13.52,-13.52 z m 214.31,0 h 30.9 c 7.44,0 13.52,6.07 13.52,13.52 v 30.89 c 0,7.45 -6.08,13.52 -13.52,13.52 h -30.9 c -7.42,0 -13.51,-6.07 -13.51,-13.52 v -30.89 c 0,-7.45 6.09,-13.52 13.51,-13.52 z m -428.65,0 h 30.9 c 7.46,0 13.54,6.07 13.54,13.52 v 30.89 c 0,7.45 -6.08,13.52 -13.54,13.52 h -30.9 c -7.42,0 -13.51,-6.07 -13.51,-13.52 v -30.89 c 0,-7.45 6.09,-13.52 13.51,-13.52 v 0"
         style="fill:#87d6c9;fill-opacity:1;fill-rule:evenodd;stroke:none"
         id="path78" /><path
         d="m 4442.94,4000.14 h 30.9 c 7.44,0 13.51,6.07 13.51,13.52 v 30.89 c 0,7.45 -6.07,13.52 -13.51,13.52 h -30.9 c -7.44,0 -13.52,-6.07 -13.52,-13.52 v -30.89 c 0,-7.45 6.08,-13.52 13.52,-13.52"
         style="fill:#ffffff;fill-opacity:1;fill-rule:evenodd;stroke:none"
         id="path80" /><path
         d="m 4657.26,4000.14 h 30.89 c 7.45,0 13.54,6.07 13.54,13.52 v 30.89 c 0,7.45 -6.09,13.52 -13.54,13.52 h -30.89 c -7.45,0 -13.52,-6.07 -13.52,-13.52 v -30.89 c 0,-7.45 6.07,-13.52 13.52,-13.52"
         style="fill:#ffffff;fill-opacity:1;fill-rule:evenodd;stroke:none"
         id="path82" /><path
         d="m 4553.97,4116.97 h 30.92 c 7.42,0 13.52,6.07 13.52,13.52 v 30.89 c 0,7.45 -6.1,13.52 -13.52,13.52 h -30.92 c -7.44,0 -13.49,-6.07 -13.49,-13.52 v -30.89 c 0,-7.45 6.05,-13.52 13.49,-13.52"
         style="fill:#ffffff;fill-opacity:1;fill-rule:evenodd;stroke:none"
         id="path84" /><path
         d="m 4768.31,4116.97 h 30.9 c 7.44,0 13.51,6.07 13.51,13.52 v 30.89 c 0,7.45 -6.07,13.52 -13.51,13.52 h -30.9 c -7.44,0 -13.52,-6.07 -13.52,-13.52 v -30.89 c 0,-7.45 6.08,-13.52 13.52,-13.52"
         style="fill:#ffffff;fill-opacity:1;fill-rule:evenodd;stroke:none"
         id="path86" /><path
         d="m 6101.67,3153 c 22.03,0 40.02,17.98 40.02,40.03 0,22.04 -17.99,40.03 -40.02,40.03 -22.05,0 -40.04,-17.99 -40.04,-40.03 0,-22.05 17.99,-40.03 40.04,-40.03"
         style="fill:#ffffff;fill-opacity:1;fill-rule:evenodd;stroke:none"
         id="path88" /><path
         d="m 2700.14,4134.89 c 22.04,0 40.03,17.99 40.03,40.03 0,22.05 -17.99,40.02 -40.03,40.02 -22.05,0 -40.03,-17.97 -40.03,-40.02 0,-22.04 17.98,-40.03 40.03,-40.03"
         style="fill:#ffffff;fill-opacity:1;fill-rule:evenodd;stroke:none"
         id="path90" /><path
         d="m 1129.14,2022.69 c 22.05,0 40.03,17.99 40.03,40.03 0,22.07 -17.98,40.03 -40.03,40.03 -22.05,0 -40.03,-17.96 -40.03,-40.03 0,-22.04 17.98,-40.03 40.03,-40.03"
         style="fill:#ffffff;fill-opacity:1;fill-rule:evenodd;stroke:none"
         id="path92" /><path
         d="m 5762.69,1925.65 c 22.03,0 40.02,17.99 40.02,40.03 0,22.04 -17.99,40.03 -40.02,40.03 -22.06,0 -40.04,-17.99 -40.04,-40.03 0,-22.04 17.98,-40.03 40.04,-40.03"
         style="fill:#ffffff;fill-opacity:1;fill-rule:evenodd;stroke:none"
         id="path94" /><path
         d="m 4231.4,3564.65 c 22.07,0 40.04,17.99 40.04,40.03 0,22.05 -17.97,40.03 -40.04,40.03 -22.05,0 -40.02,-17.98 -40.02,-40.03 0,-22.04 17.97,-40.03 40.02,-40.03"
         style="fill:#ffffff;fill-opacity:1;fill-rule:evenodd;stroke:none"
         id="path96" /><path
         d="m 1876.82,3293.7 h 3558.33 c 73.86,0 134.27,-60.44 134.27,-134.29 V 1033.75 c 0,-73.852 -60.43,-134.27 -134.27,-134.27 H 1876.82 c -73.85,0 -134.27,60.418 -134.27,134.27 v 2125.66 c 0,73.87 60.42,134.29 134.27,134.29"
         style="fill:#424446;fill-opacity:1;fill-rule:evenodd;stroke:none"
         id="path98" /><path
         d="M 5569.42,1100.53 V 843.129 c 0,-73.848 -60.41,-134.27 -134.27,-134.27 H 1876.82 c -73.85,0 -134.27,60.422 -134.27,134.27 v 257.401 h 3826.87"
         style="fill:#202021;fill-opacity:1;fill-rule:evenodd;stroke:none"
         id="path100" /><path
         d="M 1869.8,3166.45 H 5442.18 V 1227.78 H 1869.8 v 1938.67"
         style="fill:#ffffff;fill-opacity:1;fill-rule:evenodd;stroke:none"
         id="path102" /><path
         d="m 1869.8,2438.26 v 33.12 h 178.95 c 3.65,0.64 17.23,4.02 22.02,20.79 8.56,29.95 64.55,333.35 64.72,334.2 l 0.45,1.89 c 0.02,0.09 8.8,31.23 43.19,31.54 h 0.48 0.47 c 34.39,-0.31 43.17,-31.45 43.2,-31.54 l 0.46,-1.89 c 0.15,-0.85 56.16,-304.25 64.71,-334.2 5.21,-18.2 20.76,-20.64 22.72,-20.89 l 0.08,-0.03 h 0.08 0.03 0.01 0.05 0.07 l 0.16,-0.02 c 3.48,-0.4 39.89,-5.36 51.13,-44.72 8.47,-29.65 61.27,-315.15 65.13,-336.06 0.78,-1.89 3.72,-7.46 11.88,-7.46 8.13,0 11.07,5.57 11.85,7.46 3.87,20.91 56.67,306.41 65.13,336.06 10.29,36.01 41.67,43.23 49.58,44.5 1.13,0.24 2.3,0.37 3.52,0.37 h 247.78 c 9.15,0 16.58,-7.4 16.58,-16.56 0,-9.16 -7.43,-16.56 -16.58,-16.56 h -247.02 c -3.65,-0.64 -17.23,-4.02 -22.01,-20.78 -8.57,-29.97 -64.56,-333.36 -64.73,-334.21 l -0.46,-1.89 c -0.01,-0.1 -8.79,-31.23 -43.18,-31.54 h -0.46 -0.49 c -34.38,0.31 -43.17,31.44 -43.18,31.54 l -0.46,1.89 c -0.17,0.85 -56.18,304.24 -64.73,334.21 -5.19,18.2 -20.76,20.63 -22.72,20.87 l -0.08,0.03 h -0.06 -0.05 -0.01 -0.03 -0.09 l -0.16,0.03 c -3.48,0.4 -39.89,5.36 -51.12,44.72 -8.48,29.65 -61.28,315.15 -65.14,336.06 -0.76,1.89 -3.72,7.46 -11.86,7.46 -8.15,0 -11.09,-5.57 -11.87,-7.46 -3.87,-20.91 -56.65,-306.41 -65.13,-336.06 -10.29,-36.01 -41.67,-43.22 -49.57,-44.5 -1.14,-0.25 -2.31,-0.37 -3.51,-0.37 z m 3572.38,33.12 v -33.12 h -219.12 c -3.66,-0.64 -17.23,-4.02 -22.03,-20.78 -8.56,-29.97 -64.56,-333.36 -64.71,-334.21 l -0.45,-1.89 c -0.04,-0.1 -8.81,-31.23 -43.18,-31.54 h -0.47 -0.49 c -34.4,0.31 -43.17,31.44 -43.2,31.54 l -0.45,1.89 c -0.16,0.85 -56.18,304.24 -64.73,334.21 -5.2,18.2 -20.76,20.63 -22.7,20.87 l -0.09,0.03 h -0.06 -0.06 v 0 h -0.04 -0.1 l -0.13,0.03 c -3.5,0.4 -39.91,5.36 -51.16,44.72 -8.45,29.65 -61.25,315.15 -65.11,336.06 -0.78,1.89 -3.71,7.46 -11.86,7.46 -8.16,0 -11.11,-5.57 -11.87,-7.46 -3.87,-20.91 -56.66,-306.41 -65.14,-336.06 -10.27,-36.01 -41.64,-43.22 -49.57,-44.5 -1.13,-0.25 -2.31,-0.37 -3.52,-0.37 h -247.79 c -9.14,0 -16.56,7.4 -16.56,16.56 0,9.16 7.42,16.56 16.56,16.56 h 247.03 c 3.65,0.64 17.23,4.02 21.99,20.79 8.58,29.95 64.57,333.35 64.75,334.2 l 0.45,1.89 c 0.02,0.09 8.81,31.23 43.18,31.54 h 0.49 0.47 c 34.37,-0.31 43.16,-31.45 43.18,-31.54 l 0.45,-1.89 c 0.18,-0.85 56.17,-304.25 64.73,-334.2 5.21,-18.2 20.76,-20.64 22.73,-20.89 l 0.08,-0.03 h 0.08 0.02 0.02 0.04 0.1 l 0.13,-0.02 c 3.48,-0.4 39.89,-5.36 51.12,-44.72 8.49,-29.65 61.28,-315.15 65.15,-336.06 0.76,-1.89 3.71,-7.46 11.88,-7.46 8.14,0 11.07,5.57 11.85,7.46 3.87,20.91 56.66,306.41 65.12,336.06 10.29,36.01 41.68,43.23 49.59,44.5 1.13,0.24 2.3,0.37 3.5,0.37 h 219.9 v 0"
         style="fill:#fab312;fill-opacity:1;fill-rule:evenodd;stroke:none"
         id="path104" /><path
         d="m 5442.18,1794.88 v -567.1 H 1869.8 v 567.1 h 3572.38"
         style="fill:#b1e5e3;fill-opacity:1;fill-rule:evenodd;stroke:none"
         id="path106" /><path
         d="m 1403.3,764.262 h 4505.38 c 58.71,0 106.8,48.07 106.8,106.82 v 38.098 c 0,37.789 -30.92,68.718 -68.69,68.718 H 1365.2 c -37.78,0 -68.71,-30.929 -68.71,-68.718 v -38.098 c 0,-58.75 48.09,-106.82 106.81,-106.82"
         style="fill:#424446;fill-opacity:1;fill-rule:evenodd;stroke:none"
         id="path108" /><path
         d="m 1583.54,933.18 h 2659.24 c 17.56,0 31.9,-14.348 31.9,-31.91 v 0 c 0,-17.532 -14.34,-31.899 -31.9,-31.899 H 1583.54 c -17.56,0 -31.91,14.367 -31.91,31.899 v 0 c 0,17.562 14.35,31.91 31.91,31.91"
         style="fill:#676c6e;fill-opacity:1;fill-rule:evenodd;stroke:none"
         id="path110" /><path
         d="m 1384.81,933.18 h 86.22 c 17.54,0 31.89,-14.348 31.89,-31.91 v 0 c 0,-17.532 -14.35,-31.899 -31.89,-31.899 h -86.22 c -17.54,0 -31.89,14.367 -31.89,31.899 v 0 c 0,17.562 14.35,31.91 31.89,31.91"
         style="fill:#676c6e;fill-opacity:1;fill-rule:evenodd;stroke:none"
         id="path112" /><path
         d="m 3659.19,3730.53 v 0 c -107.76,0 -195.91,-150.75 -195.91,-334.99 v -272.09 c 0,-184.26 88.15,-335 195.91,-335 v 0 c 107.75,0 195.92,150.74 195.92,335 v 272.09 c 0,184.24 -88.17,334.99 -195.92,334.99"
         style="fill:#f57a7c;fill-opacity:1;fill-rule:evenodd;stroke:none"
         id="path114" /><path
         d="m 3721.97,3031.49 155.42,121.93 0.33,9.33 c 0,0 0.3,10.37 7.33,14.23 l 373.01,-111.36 c -97.39,-435.19 -10.14,-722.72 -10.14,-722.72 -63.73,-344.02 -38.3,-487.82 -38.3,-510 0,-36.05 73.63,-477.91 113.46,-605.58 H 3655.99 2988.9 c 39.84,127.67 113.46,569.53 113.46,605.58 0,22.18 25.43,165.98 -38.31,510 0,0 87.26,287.53 -10.13,722.72 l 373.01,111.36 c 7.05,-3.86 7.34,-14.23 7.34,-14.23 l 0.33,-9.33 157.33,-123.45 c 36.51,13.05 92.07,13.56 130.04,1.52"
         style="fill:#47c1ab;fill-opacity:1;fill-rule:evenodd;stroke:none"
         id="path116" /><path
         d="m 3700.84,1227.32 h -89.72 v 1805.37 c 26.47,9.35 62.15,9.91 89.72,1.69 V 1227.32"
         style="fill:#328f84;fill-opacity:1;fill-rule:evenodd;stroke:none"
         id="path118" /><path
         d="m 3311.53,3764.79 c -2.58,-0.36 -5.13,-0.8 -7.64,-1.34 l -0.09,-0.03 h 0.01 c -46.46,-10.06 -81.52,-51.13 -82.13,-100.71 -0.68,-57.61 45.47,-104.88 103.08,-105.58 57.62,-0.68 104.89,45.48 105.6,103.07 0.39,33.49 -15.03,63.47 -39.32,82.86 2.88,-30.77 -1.75,-68.93 -41.05,-73.03 l 0.72,60.17 c 0.3,24.35 -22.48,35.39 -39.18,34.59"
         style="fill:#f57a7c;fill-opacity:1;fill-rule:evenodd;stroke:none"
         id="path120" /><path
         d="m 3999.07,3764.9 c 2.58,-0.32 5.12,-0.73 7.68,-1.23 l 0.06,-0.03 v 0 c 46.6,-9.43 82.2,-50 83.51,-99.56 1.49,-57.59 -44,-105.51 -101.6,-107 -57.6,-1.49 -105.51,43.99 -106.99,101.58 -0.9,33.49 14.12,63.68 38.14,83.4 -2.44,-30.81 2.7,-68.91 42.05,-72.46 l -1.56,60.16 c -0.62,24.35 21.99,35.7 38.71,35.14"
         style="fill:#f57a7c;fill-opacity:1;fill-rule:evenodd;stroke:none"
         id="path122" /><path
         d="m 3655.99,3242.33 c 194.76,0 357.24,240.31 357.24,430.06 v 252.06 c 0,196.46 -160.76,357.21 -357.19,357.21 h -0.05 c -196.43,0 -357.18,-160.75 -357.18,-357.21 v -246.72 c 0,-207.94 141.73,-435.4 357.18,-435.4"
         style="fill:#f9acac;fill-opacity:1;fill-rule:evenodd;stroke:none"
         id="path124" /><path
         d="m 3462.56,3621.63 c 31.31,-0.58 56.22,-26.43 55.64,-57.74 -0.57,-31.33 -26.43,-56.24 -57.74,-55.66 -31.32,0.57 -56.24,26.43 -55.66,57.76 0.58,31.3 26.44,56.22 57.76,55.64"
         style="fill:#f35f66;fill-opacity:1;fill-rule:evenodd;stroke:none"
         id="path126" /><path
         d="m 3851.59,3612.61 c 31.31,-0.58 56.21,-26.44 55.65,-57.76 -0.59,-31.31 -26.45,-56.23 -57.76,-55.65 -31.33,0.58 -56.25,26.44 -55.66,57.75 0.56,31.32 26.44,56.23 57.77,55.66"
         style="fill:#f35f66;fill-opacity:1;fill-rule:evenodd;stroke:none"
         id="path128" /><path
         d="m 3782.88,3834.29 c -6.44,-2.92 -9.32,-10.54 -6.39,-16.97 2.91,-6.44 10.53,-9.3 16.98,-6.38 0.09,0.05 38.77,18.34 75.64,-4.86 6.02,-3.79 13.99,-1.96 17.76,4.04 3.76,6.01 1.97,13.97 -4.05,17.75 -48.73,30.63 -99.78,6.48 -99.94,6.42"
         style="fill:#202021;fill-opacity:1;fill-rule:evenodd;stroke:none"
         id="path130" /><path
         d="m 3429.8,3828.47 c -6.17,-3.44 -8.41,-11.24 -4.97,-17.42 3.44,-6.18 11.25,-8.42 17.43,-4.98 0.1,0.06 37.15,21.43 75.81,1.29 6.29,-3.27 14.08,-0.82 17.34,5.48 3.28,6.31 0.83,14.08 -5.47,17.36 -51.06,26.57 -100,-1.65 -100.14,-1.73"
         style="fill:#202021;fill-opacity:1;fill-rule:evenodd;stroke:none"
         id="path132" /><path
         d="m 3646.39,3652.95 c -6.65,-18.06 -18.29,-50.8 -17.29,-56.29 1.4,-7.66 40.94,-14.77 51.33,-4.68 6.93,6.73 -1.65,36.24 -9.16,56.12 -10.23,27.08 -15.9,29.19 -24.88,4.85"
         style="fill:#fbc5c7;fill-opacity:1;fill-rule:evenodd;stroke:none"
         id="path134" /><path
         d="m 3580.96,3510.19 c 0,-41.46 33.61,-75.06 75.05,-75.06 41.46,0 75.06,33.6 75.06,75.06 0,7.61 -6.21,13.8 -13.81,13.8 h -122.5 c -7.61,0 -13.8,-6.19 -13.8,-13.8"
         style="fill:#202021;fill-opacity:1;fill-rule:evenodd;stroke:none"
         id="path136" /><path
         d="m 3709.69,3523.99 h -107.36 v -12.69 c 0,-6.62 5.41,-12.02 12.02,-12.02 h 83.32 c 6.62,0 12.02,5.4 12.02,12.02 v 12.69"
         style="fill:#ffffff;fill-opacity:1;fill-rule:evenodd;stroke:none"
         id="path138" /><path
         d="m 3601.61,3458.46 c 13.68,-14.37 33,-23.33 54.4,-23.33 21.41,0 40.73,8.96 54.4,23.33 -13.67,14.38 -32.99,23.35 -54.4,23.35 -21.4,0 -40.72,-8.97 -54.4,-23.35"
         style="fill:#f1476f;fill-opacity:1;fill-rule:evenodd;stroke:none"
         id="path140" /><path
         d="m 4013.23,3685.31 c 0,0 -32.75,17.66 -32.75,104.29 0,86.65 5.35,113.38 -40.63,157.24 -45.99,43.85 -47.07,85.57 -47.07,85.57 l 134.79,60.97 c 0,0 67.38,-35.29 66.33,-99.48 -1.1,-64.18 -47.89,-247.16 -47.89,-247.16 0,0 -32.5,-8.7 -32.78,-61.43"
         style="fill:#202021;fill-opacity:1;fill-rule:evenodd;stroke:none"
         id="path142" /><path
         d="m 3298.81,3685.31 c 0,0 32.74,17.66 32.74,104.29 0,86.65 -5.35,113.38 40.63,157.24 46,43.85 47.06,85.57 47.06,85.57 l -134.77,60.97 c 0,0 -67.39,-35.29 -66.32,-99.48 1.07,-64.18 47.87,-247.16 47.87,-247.16 0,0 32.52,-8.7 32.79,-61.43"
         style="fill:#202021;fill-opacity:1;fill-rule:evenodd;stroke:none"
         id="path144" /><path
         d="m 3463.29,3253 c 0,0 -16.91,2.53 -22.72,0 -5.83,-2.54 -25.63,-73.76 -37.87,-90.98 0,0 -11.08,-14.19 -2.92,-37.99 8.15,-23.84 114.77,-219.46 114.77,-219.46 0,0 7.58,-10.4 19.82,-0.26 12.24,10.13 105.17,135.08 105.17,135.08 l -176.25,161.66 V 3253"
         style="fill:#328f84;fill-opacity:1;fill-rule:evenodd;stroke:none"
         id="path146" /><path
         d="m 3855.11,3255.33 c 0,0 16.89,2.54 22.71,0 5.82,-2.53 25.63,-76.09 37.87,-93.31 0,0 11.08,-14.19 2.93,-37.99 -8.16,-23.84 -114.8,-219.46 -114.8,-219.46 0,0 -7.58,-10.4 -19.81,-0.26 -12.22,10.13 -105.17,135.08 -105.17,135.08 l 176.27,161.66 v 54.28"
         style="fill:#328f84;fill-opacity:1;fill-rule:evenodd;stroke:none"
         id="path148" /><path
         d="m 3862.92,2514.76 -0.37,0.03 h -0.22 l -0.43,0.03 h -0.17 l -0.45,0.03 -0.14,0.03 -0.49,0.03 h -0.11 l -0.53,0.06 h -0.06 l -0.55,0.06 h -0.03 l -0.59,0.09 v 0 l -0.59,0.07 h -0.04 l -0.54,0.08 h -0.06 l -0.51,0.1 h -0.1 l -0.48,0.09 -0.59,0.12 -0.14,0.03 -0.43,0.09 -0.17,0.03 -0.41,0.06 -0.22,0.06 -0.35,0.09 -1.13,0.25 -0.31,0.09 -0.24,0.06 -0.33,0.09 -0.24,0.06 -0.37,0.13 -0.19,0.03 -0.39,0.12 -0.16,0.06 -0.43,0.12 -0.12,0.03 -0.45,0.15 -0.09,0.03 -0.49,0.15 -0.06,0.03 -0.51,0.19 h -0.04 l -0.52,0.21 h -0.02 l -0.53,0.18 -0.02,0.03 -0.53,0.18 -0.06,0.04 -0.46,0.18 -0.08,0.03 -0.45,0.21 -0.12,0.03 -0.41,0.18 -0.14,0.07 -0.37,0.18 -0.17,0.06 -0.35,0.15 -0.22,0.1 -0.29,0.15 -0.26,0.12 -0.27,0.15 -0.25,0.12 -0.26,0.12 -0.27,0.16 -0.26,0.09 -0.27,0.18 -0.21,0.09 -0.34,0.18 -0.15,0.1 -0.35,0.21 -0.16,0.06 -0.37,0.21 -0.12,0.06 -0.39,0.25 -0.1,0.06 -0.43,0.24 -0.05,0.06 -0.45,0.28 h -0.04 l -0.47,0.3 h -0.02 l -0.45,0.34 h -0.04 l -0.45,0.3 -0.04,0.03 -0.41,0.27 -0.08,0.06 -0.39,0.28 -0.11,0.06 -0.36,0.28 -0.11,0.08 -0.33,0.25 -0.14,0.12 -0.31,0.21 -0.18,0.13 -0.27,0.21 -0.2,0.15 -0.27,0.21 -0.22,0.19 -0.19,0.18 -0.26,0.18 -0.19,0.16 -0.25,0.24 -0.2,0.12 -0.27,0.27 -0.14,0.13 -0.31,0.24 -0.12,0.12 -0.31,0.31 -0.1,0.05 -0.35,0.34 -0.06,0.06 -0.37,0.34 -0.04,0.06 -0.39,0.36 -0.02,0.03 -0.41,0.4 c -8.99,8.98 -14.57,21.4 -14.57,35.04 v 103.95 h 11.21 v 65.38 c 0,39 15.55,75.98 43.09,103.5 27.52,27.55 64.51,43.1 103.49,43.1 38.97,0 75.98,-15.55 103.5,-43.1 27.52,-27.52 43.08,-64.5 43.08,-103.5 v -65.38 h 11.23 v -103.95 c 0,-13.64 -5.6,-26.06 -14.6,-35.04 l -0.42,-0.4 v -0.03 l -0.39,-0.36 -0.03,-0.06 -0.38,-0.34 -0.07,-0.06 -0.34,-0.34 -0.09,-0.05 -0.34,-0.31 -0.11,-0.12 -0.32,-0.24 -0.13,-0.13 -0.28,-0.27 -0.15,-0.12 -0.28,-0.24 -0.19,-0.16 -0.25,-0.18 -0.24,-0.18 -0.19,-0.19 -0.26,-0.21 -0.19,-0.15 -0.28,-0.21 -0.17,-0.13 -0.3,-0.21 -0.15,-0.12 -0.33,-0.25 -0.12,-0.08 -0.37,-0.28 -0.1,-0.06 -0.39,-0.28 -0.08,-0.06 -0.41,-0.27 -0.06,-0.03 -0.45,-0.3 h -0.02 l -0.46,-0.34 v 0 l -0.49,-0.3 h -0.02 l -0.47,-0.28 -0.06,-0.06 -0.41,-0.24 -0.08,-0.06 -0.41,-0.25 -0.12,-0.06 -0.39,-0.21 -0.11,-0.06 -0.37,-0.21 -0.18,-0.1 -0.31,-0.18 -0.22,-0.09 -0.29,-0.18 -0.23,-0.09 -0.28,-0.16 -0.25,-0.12 -0.28,-0.12 -0.29,-0.15 -0.19,-0.12 -0.36,-0.15 -0.17,-0.1 -0.37,-0.15 -0.14,-0.06 -0.41,-0.18 -0.12,-0.07 -0.43,-0.18 -0.09,-0.03 -0.45,-0.21 -0.08,-0.03 -0.49,-0.18 -0.06,-0.04 -0.49,-0.18 -0.04,-0.03 -0.54,-0.18 v 0 l -0.53,-0.21 h -0.06 l -0.49,-0.19 -0.07,-0.03 -0.47,-0.15 -0.1,-0.03 -0.45,-0.15 -0.14,-0.03 -0.41,-0.12 -0.17,-0.06 -0.39,-0.12 -0.2,-0.03 -0.35,-0.13 -0.22,-0.06 -0.33,-0.09 -0.29,-0.06 -0.29,-0.09 -0.28,-0.06 -0.27,-0.07 -0.33,-0.08 -0.26,-0.04 -0.35,-0.09 -0.21,-0.06 -0.39,-0.06 -0.18,-0.03 -0.41,-0.09 -0.16,-0.03 -0.44,-0.09 -0.14,-0.03 -0.49,-0.09 h -0.08 l -0.54,-0.1 h -0.04 l -0.57,-0.08 v 0 l -0.62,-0.07 v 0 l -0.57,-0.09 h -0.04 l -0.55,-0.06 h -0.09 l -0.51,-0.06 h -0.1 l -0.49,-0.03 -0.14,-0.03 -0.46,-0.03 h -0.16 l -0.41,-0.03 h -0.22 l -0.41,-0.03 v 10.23 c 0,10.01 -8.18,18.2 -18.2,18.2 h -0.45 c -10,0 -18.18,-8.19 -18.18,-18.2 v -37.75 c 0,-10.02 8.18,-18.2 18.18,-18.2 h 0.45 c 10.02,0 18.2,8.18 18.2,18.2 v 10.32 h 0.43 l 0.39,0.03 h 0.47 l 0.37,0.03 0.47,0.03 0.35,0.03 0.49,0.03 0.32,0.03 0.52,0.03 0.28,0.03 0.58,0.06 0.24,0.04 0.6,0.05 0.2,0.03 0.64,0.07 0.16,0.03 0.66,0.09 0.14,0.03 0.68,0.09 0.12,0.03 0.72,0.09 0.06,0.03 0.76,0.12 h 0.04 l 0.78,0.16 0.78,0.15 h 0.04 l 0.75,0.18 h 0.05 l 0.73,0.15 0.09,0.03 0.67,0.15 0.14,0.03 0.62,0.19 0.18,0.03 0.6,0.15 0.2,0.06 0.56,0.16 0.24,0.05 0.53,0.16 0.25,0.09 0.51,0.15 0.27,0.09 0.47,0.15 0.31,0.1 0.45,0.15 0.33,0.09 0.41,0.15 0.35,0.12 0.4,0.16 0.37,0.12 0.37,0.12 0.41,0.18 0.31,0.12 0.45,0.15 0.29,0.13 0.47,0.18 0.24,0.12 0.5,0.21 0.22,0.1 0.53,0.21 0.19,0.09 0.57,0.24 0.13,0.07 0.59,0.27 0.14,0.06 0.58,0.31 0.12,0.03 0.62,0.33 0.08,0.03 0.65,0.3 0.04,0.03 0.68,0.37 h 0.02 l 0.68,0.37 v 0 l 0.69,0.36 0.02,0.03 0.64,0.37 0.06,0.03 0.6,0.36 0.1,0.06 0.59,0.34 0.12,0.06 0.52,0.33 0.14,0.09 0.53,0.34 0.17,0.09 0.45,0.33 0.22,0.13 0.45,0.3 0.21,0.15 0.43,0.28 0.25,0.18 0.38,0.24 0.27,0.22 0.35,0.24 0.31,0.21 0.32,0.25 0.33,0.24 0.29,0.21 0.33,0.28 0.28,0.21 0.37,0.28 0.23,0.18 0.39,0.33 0.24,0.16 0.39,0.33 0.19,0.18 0.41,0.34 0.18,0.15 0.43,0.36 0.15,0.12 0.45,0.43 0.14,0.09 0.49,0.43 0.08,0.09 0.48,0.46 0.06,0.06 0.53,0.49 0.06,0.05 0.51,0.52 h 0.04 l 0.54,0.55 c 12.11,12.12 19.61,28.83 19.61,47.22 v 103.95 h 11.23 v 65.38 c 0,49.5 -19.7,96.56 -54.67,131.53 -29.35,29.36 -67.18,47.94 -107.83,53.18 v 60.22 h -44.41 v -59.86 c -41.78,-4.67 -80.76,-23.47 -110.82,-53.54 -34.98,-34.97 -54.69,-82.03 -54.69,-131.53 v -65.38 h 11.21 v -103.95 c 0,-18.39 7.52,-35.1 19.63,-47.22 l 0.55,-0.55 v 0 l 0.56,-0.52 0.02,-0.05 0.53,-0.49 0.06,-0.06 0.51,-0.46 0.1,-0.09 0.46,-0.43 0.12,-0.09 0.47,-0.43 0.14,-0.12 0.45,-0.36 0.15,-0.15 0.43,-0.34 0.2,-0.18 0.41,-0.33 0.21,-0.16 0.37,-0.33 0.26,-0.18 0.35,-0.28 0.27,-0.21 0.35,-0.28 0.3,-0.21 0.33,-0.24 0.33,-0.25 0.27,-0.21 0.36,-0.24 0.27,-0.22 0.41,-0.24 0.23,-0.18 0.41,-0.28 0.24,-0.15 0.45,-0.3 0.19,-0.13 0.49,-0.33 0.16,-0.09 0.5,-0.34 0.16,-0.09 0.55,-0.33 0.12,-0.06 0.56,-0.34 0.08,-0.06 0.61,-0.36 0.07,-0.03 0.63,-0.37 0.06,-0.03 0.64,-0.36 h 0.02 l 0.68,-0.37 h 0.02 l 0.67,-0.37 0.06,-0.03 0.64,-0.3 0.06,-0.03 0.64,-0.33 0.1,-0.03 0.61,-0.31 0.11,-0.06 0.59,-0.27 0.16,-0.07 0.56,-0.24 0.18,-0.09 0.53,-0.21 0.23,-0.1 0.49,-0.21 0.25,-0.12 0.49,-0.18 0.27,-0.13 0.45,-0.15 0.32,-0.12 0.41,-0.18 0.35,-0.12 0.39,-0.12 0.37,-0.16 0.35,-0.12 0.43,-0.15 0.33,-0.09 0.43,-0.15 0.32,-0.1 0.48,-0.15 0.28,-0.09 0.5,-0.15 0.26,-0.09 0.55,-0.16 0.21,-0.05 0.57,-0.16 0.17,-0.06 0.63,-0.15 0.13,-0.03 0.65,-0.19 0.14,-0.03 0.68,-0.15 0.1,-0.03 0.7,-0.15 h 0.08 l 0.74,-0.18 h 0.02 l 0.8,-0.15 0.78,-0.16 h 0.04 l 0.76,-0.12 0.06,-0.03 0.74,-0.09 0.08,-0.03 0.7,-0.09 0.12,-0.03 0.69,-0.09 0.15,-0.03 0.65,-0.07 0.19,-0.03 0.61,-0.05 0.23,-0.04 0.57,-0.06 0.27,-0.03 0.55,-0.03 0.29,-0.03 0.53,-0.03 0.33,-0.03 0.49,-0.03 0.35,-0.03 h 0.45 l 0.39,-0.03 h 0.43 v -10.32 c 0,-10.02 8.2,-18.2 18.2,-18.2 h 0.45 c 10.02,0 18.21,8.18 18.21,18.2 v 37.75 c 0,10.01 -8.19,18.2 -18.21,18.2 h -0.45 c -10,0 -18.2,-8.19 -18.2,-18.2 v -10.23"
         style="fill:#202021;fill-opacity:1;fill-rule:evenodd;stroke:none"
         id="path150" /><path
         d="m 3964.4,2904.69 c 0,-5.59 4.52,-10.12 10.1,-10.12 5.57,0 10.12,4.53 10.12,10.12 v 184.65 c 0,52.69 -21.56,100.59 -56.27,135.29 -20.41,20.43 -45.41,36.3 -73.24,45.91 v -21.56 c 22.26,-8.73 42.28,-21.99 58.94,-38.64 31.06,-31.06 50.35,-73.89 50.35,-121 v -184.65"
         style="fill:#202021;fill-opacity:1;fill-rule:evenodd;stroke:none"
         id="path152" /><path
         d="m 3353.99,2635.82 c 0,-5.57 -4.53,-10.11 -10.1,-10.11 -5.58,0 -10.11,4.54 -10.11,10.11 v 453.52 c 0,52.69 21.54,100.59 56.25,135.29 20.41,20.43 45.41,36.3 73.25,45.91 v -21.56 c -22.25,-8.73 -42.3,-21.99 -58.95,-38.64 -31.05,-31.06 -50.34,-73.89 -50.34,-121 v -453.52"
         style="fill:#202021;fill-opacity:1;fill-rule:evenodd;stroke:none"
         id="path154" /><path
         d="m 3344.55,2584.56 c 26.8,0 48.65,21.85 48.65,48.67 0,26.79 -21.85,48.64 -48.65,48.64 -26.81,0 -48.67,-21.85 -48.67,-48.64 0,-26.82 21.86,-48.67 48.67,-48.67"
         style="fill:#202021;fill-opacity:1;fill-rule:evenodd;stroke:none"
         id="path156" /><path
         d="m 3053.92,3065.62 c 0,0 -167.73,-51.01 -221.75,-256.38 -54.01,-205.35 -171.44,-909.04 -171.44,-909.04 0,0 -19.22,-121.94 29.53,-237.46 48.77,-115.53 133.28,-435.42 133.28,-435.42 h 410.73 l -202.63,570.18 c 0,0 1.3,72.75 -24.65,106.96 l 107.85,438.44 c 0,0 122.75,359.37 -60.92,722.72"
         style="fill:#47c1ab;fill-opacity:1;fill-rule:evenodd;stroke:none"
         id="path158" /><path
         d="m 4258.06,3065.62 c 0,0 168.2,-51.01 224.22,-256.38 56.01,-205.35 187.26,-946.45 187.26,-946.45 0,0 20.43,-121.95 -27.21,-237.46 -47.65,-115.53 -136.15,-398.01 -136.15,-398.01 h -410.76 l 204.24,532.79 c 0,0 -1.99,72.73 23.59,106.94 l -119.14,475.85 c 0,0 -126.23,359.37 53.95,722.72"
         style="fill:#47c1ab;fill-opacity:1;fill-rule:evenodd;stroke:none"
         id="path160" /><path
         d="m 3883.54,3702.06 c 0,-7.34 -5.93,-13.29 -13.28,-13.29 -7.34,0 -13.28,5.95 -13.28,13.29 0,7.24 -2.97,13.81 -7.69,18.55 l -0.55,0.59 c -4.67,4.4 -11,7.1 -18.01,7.1 -7.26,0 -13.85,-2.93 -18.57,-7.65 v -0.04 c -4.75,-4.74 -7.66,-11.31 -7.66,-18.55 0,-7.34 -5.97,-13.29 -13.3,-13.29 -7.34,0 -13.3,5.95 -13.3,13.29 0,14.58 5.92,27.79 15.49,37.34 l 0.02,-0.03 c 9.59,9.59 22.77,15.5 37.32,15.5 14.12,0 27.01,-5.59 36.51,-14.7 l 0.84,-0.77 c 9.57,-9.55 15.46,-22.76 15.46,-37.34"
         style="fill:#202021;fill-opacity:1;fill-rule:evenodd;stroke:none"
         id="path162" /><path
         d="m 3534.13,3702.06 c 0,-7.34 -5.96,-13.29 -13.29,-13.29 -7.34,0 -13.29,5.95 -13.29,13.29 0,7.24 -2.95,13.81 -7.69,18.55 l -0.54,0.59 c -4.68,4.4 -11.01,7.1 -18.03,7.1 -7.27,0 -13.83,-2.93 -18.55,-7.65 v -0.04 c -4.73,-4.74 -7.68,-11.31 -7.68,-18.55 0,-7.34 -5.95,-13.29 -13.29,-13.29 -7.34,0 -13.29,5.95 -13.29,13.29 0,14.58 5.92,27.79 15.48,37.34 l 0.01,-0.03 c 9.59,9.59 22.79,15.5 37.32,15.5 14.14,0 27.02,-5.59 36.52,-14.7 l 0.84,-0.77 c 9.55,-9.55 15.48,-22.76 15.48,-37.34"
         style="fill:#202021;fill-opacity:1;fill-rule:evenodd;stroke:none"
         id="path164" /><path
         d="m 3092.26,2193.25 c 0.3,-8.01 -4.37,-14.83 -10.45,-15.23 -6.07,-0.42 -11.24,5.73 -11.56,13.73 -0.05,1.56 -41.63,503.67 -81.23,652.77 -2,7.55 1.03,15.8 6.77,18.44 5.75,2.62 12.02,-1.37 14.03,-8.92 40.65,-153.08 82.37,-659.24 82.44,-660.79 z m 1155.72,-2.95 c -0.18,-8.01 -5.27,-14.28 -11.35,-14.04 -6.05,0.25 -10.84,6.94 -10.66,14.92 0.06,1.74 33.3,527.37 76.44,666.06 2.29,7.4 8.69,10.96 14.32,7.95 5.62,-3.02 8.32,-11.45 6.03,-18.85 -41.6,-133.78 -74.74,-654.37 -74.78,-656.04 v 0"
         style="fill:#328f84;fill-opacity:1;fill-rule:evenodd;stroke:none"
         id="path166" /><path
         d="m 3554,2804.64 c 10.46,0 18.98,8.52 18.98,18.99 0,10.45 -8.52,18.97 -18.98,18.97 -10.46,0 -18.98,-8.52 -18.98,-18.97 0,-10.47 8.52,-18.99 18.98,-18.99"
         style="fill:#ffffff;fill-opacity:1;fill-rule:evenodd;stroke:none"
         id="path168" /><path
         d="m 3554,2590.13 c 10.46,0 18.98,8.55 18.98,18.99 0,10.47 -8.52,19 -18.98,19 -10.46,0 -18.98,-8.53 -18.98,-19 0,-10.44 8.52,-18.99 18.98,-18.99"
         style="fill:#ffffff;fill-opacity:1;fill-rule:evenodd;stroke:none"
         id="path170" /><path
         d="m 3222.29,2490.77 h 233.82 c 12.85,0 23.36,-10.5 23.36,-23.37 v -222.1 c 0,-58.65 -47.99,-106.66 -106.66,-106.66 h -67.23 c -58.66,0 -106.65,48.01 -106.65,106.66 v 222.1 c 0,12.87 10.52,23.37 23.36,23.37"
         style="fill:#328f84;fill-opacity:1;fill-rule:evenodd;stroke:none"
         id="path172" /><path
         d="m 3969.54,3978.6 c 0,0 35.16,108.89 86.39,63.93 0,0 20.15,252.12 -177.78,254.66 68.32,127.38 -102.69,141.38 -244.18,59.5 -157.29,228.94 -525.31,-33.01 -388.04,-303.39 112.92,-222.44 94.63,-51.84 94.63,-51.84 0,0 94.24,-92.77 228.66,19.73 0,-68.4 69.19,-75.93 78.91,-5.11 0,0 147.56,-143.19 321.41,-37.48"
         style="fill:#202021;fill-opacity:1;fill-rule:evenodd;stroke:none"
         id="path174" /><path
         d="m 3083.78,1736.49 c 1.14,5.97 6.92,9.89 12.89,8.74 5.98,-1.12 9.91,-6.91 8.76,-12.88 -12.46,-64.86 -24.44,-114.12 -34.32,-154.76 -17.52,-72.02 -28.35,-116.61 -23.95,-176.7 7.12,-97.32 -9.51,-178.14 -9.56,-178.39 -1.25,-5.92 -7.08,-9.76 -13.03,-8.51 -5.97,1.24 -9.78,7.06 -8.54,13.03 0.05,0.21 16.03,77.92 9.14,172.31 -4.65,63.35 6.51,109.29 24.55,183.44 9.75,40.15 21.56,88.76 34.06,153.72"
         style="fill:#328f84;fill-opacity:1;fill-rule:evenodd;stroke:none"
         id="path176" /><path
         d="m 4205.95,1732.35 c -1.17,5.97 2.77,11.76 8.73,12.88 5.99,1.15 11.76,-2.77 12.91,-8.74 12.5,-64.96 24.31,-113.57 34.06,-153.72 18.03,-74.15 29.18,-120.09 24.57,-183.44 -6.91,-94.39 9.06,-172.1 9.12,-172.31 1.23,-5.97 -2.58,-11.79 -8.55,-13.03 -5.96,-1.25 -11.78,2.59 -13.03,8.51 -0.02,0.25 -16.68,81.07 -9.55,178.39 4.39,60.09 -6.45,104.68 -23.97,176.7 -9.86,40.64 -21.85,89.9 -34.29,154.76"
         style="fill:#328f84;fill-opacity:1;fill-rule:evenodd;stroke:none"
         id="path178" /><path
         d="m 810.043,365.461 c 32.492,0 59.082,26.578 59.082,59.09 v 4.898 c 0,32.512 -26.59,59.082 -59.082,59.082 v 0 c -32.5,0 -59.082,-26.57 -59.082,-59.082 v -4.898 c 0,-32.512 26.582,-59.09 59.082,-59.09 z m -46.16,398.801 H 6736.12 c 48.71,0 88.62,-39.91 88.62,-88.614 v 0 c 0,-48.726 -39.87,-88.636 -88.62,-88.636 H 6437.1 c -27.07,0 -49.24,-22.16 -49.24,-49.223 v 0 c 0,-27.09 22.17,-49.258 49.24,-49.258 h 109.41 c 33.83,0 61.53,-27.699 61.53,-61.511 v -0.028 c 0,-33.82 -27.68,-61.531 -61.53,-61.531 H 963.297 c -33.848,0 -61.555,27.668 -61.555,61.531 v 0.028 c 0,33.839 27.707,61.511 61.555,61.511 h 86.163 c 27.07,0 49.23,22.168 49.23,49.258 v 0 c 0,27.063 -22.16,49.223 -49.23,49.223 H 763.883 c -48.742,0 -88.633,39.91 -88.633,88.636 v 0 c 0,48.743 39.922,88.614 88.633,88.614 v 0"
         style="fill:#148175;fill-opacity:1;fill-rule:evenodd;stroke:none"
         id="path180" /><path
         d="m 1198.19,761.07 h 4989.96 c 32.95,0 59.85,-26.922 59.85,-59.871 v 0 c 0,-32.91 -26.9,-59.867 -59.85,-59.867 H 1198.19 c -32.96,0 -59.89,26.957 -59.89,59.867 v 0 c 0,32.949 26.93,59.871 59.89,59.871"
         style="fill:#328f84;fill-opacity:1;fill-rule:evenodd;stroke:none"
         id="path182" /></g></g></svg>
